<?xml version="1.0" encoding="UTF-8"?>
<!-- Generator: Adobe Illustrator 24.1.2, SVG Export Plug-In . SVG Version: 6.00 Build 0)  -->
<svg version="1.1" id="Camada_1" xmlns="http://www.w3.org/2000/svg" xmlns:xlink="http://www.w3.org/1999/xlink" x="0px" y="0px" viewBox="0 0 1259.36 445.63" enable-background="new 0 0 1259.36 445.63" xml:space="preserve">
<g>
	<g>
		<g>
			<path fill="#FFFFFF" d="M723.56,357.49l12.23-29.14h0.23l12.19,29.14h-4.3l-9.13-23.26l2.67-1.74l-10.22,25H723.56z      M730.72,346.88h10.41l1.24,3.25h-12.73L730.72,346.88z"/>
			<path fill="#FFFFFF" d="M756.57,357.49v-27.98h7.62c2.76,0,5.11,0.43,7.06,1.28s3.51,1.97,4.7,3.37     c1.19,1.39,2.06,2.94,2.61,4.63c0.55,1.69,0.83,3.37,0.83,5.05c0,2.12-0.37,4.01-1.1,5.69c-0.74,1.68-1.75,3.11-3.04,4.3     c-1.29,1.19-2.77,2.1-4.43,2.73c-1.66,0.63-3.42,0.95-5.28,0.95H756.57z M760.32,353.89h4.49c1.55,0,2.97-0.23,4.28-0.7     c1.3-0.46,2.44-1.13,3.41-2.01c0.97-0.88,1.72-1.95,2.26-3.23c0.54-1.28,0.81-2.73,0.81-4.35c0-1.73-0.28-3.24-0.85-4.55     c-0.57-1.3-1.34-2.39-2.32-3.27s-2.09-1.54-3.33-1.99s-2.54-0.68-3.91-0.68h-4.84V353.89z"/>
			<path fill="#FFFFFF" d="M789.58,329.51l9.21,23.14l-2.13-0.43l8.75-22.72h4.37l-12.34,29.26l-12.31-29.26H789.58z"/>
			<path fill="#FFFFFF" d="M814.96,343.52c0-1.93,0.37-3.76,1.1-5.48s1.76-3.24,3.08-4.57c1.32-1.33,2.83-2.37,4.55-3.13     c1.71-0.76,3.57-1.14,5.55-1.14c1.96,0,3.8,0.38,5.51,1.14c1.71,0.76,3.24,1.81,4.57,3.13c1.33,1.33,2.37,2.85,3.12,4.57     c0.75,1.72,1.12,3.54,1.12,5.48c0,1.99-0.38,3.84-1.12,5.57c-0.75,1.73-1.79,3.25-3.12,4.55c-1.33,1.3-2.85,2.32-4.57,3.06     c-1.72,0.74-3.55,1.1-5.51,1.1c-1.99,0-3.84-0.36-5.55-1.08c-1.72-0.72-3.23-1.73-4.55-3.02c-1.32-1.29-2.34-2.8-3.08-4.53     C815.33,347.44,814.96,345.56,814.96,343.52z M818.83,343.56c0,1.47,0.27,2.84,0.81,4.12c0.54,1.28,1.29,2.41,2.24,3.39     c0.95,0.98,2.06,1.75,3.33,2.3c1.26,0.55,2.63,0.83,4.1,0.83c1.44,0,2.8-0.28,4.06-0.83c1.26-0.55,2.36-1.32,3.29-2.3     s1.66-2.11,2.21-3.39c0.54-1.28,0.81-2.66,0.81-4.16c0-1.47-0.27-2.86-0.81-4.16s-1.29-2.44-2.24-3.42     c-0.96-0.98-2.06-1.75-3.33-2.3c-1.26-0.55-2.62-0.83-4.06-0.83c-1.47,0-2.84,0.28-4.1,0.85c-1.26,0.57-2.37,1.34-3.33,2.32     c-0.96,0.98-1.69,2.12-2.21,3.42C819.09,340.7,818.83,342.09,818.83,343.56z"/>
			<path fill="#FFFFFF" d="M873.51,355.4c-0.46,0.31-1.1,0.66-1.9,1.04s-1.74,0.71-2.81,0.97s-2.24,0.39-3.5,0.39     c-2.17-0.03-4.12-0.41-5.86-1.16c-1.74-0.75-3.22-1.77-4.43-3.06s-2.15-2.78-2.81-4.47c-0.66-1.69-0.99-3.49-0.99-5.4     c0-2.09,0.34-4.02,1.03-5.79c0.68-1.77,1.64-3.3,2.88-4.61c1.24-1.3,2.7-2.31,4.39-3.04c1.69-0.72,3.54-1.08,5.55-1.08     c1.68,0,3.2,0.23,4.57,0.68s2.54,0.99,3.52,1.61l-1.51,3.48c-0.77-0.52-1.71-1.01-2.81-1.47c-1.1-0.46-2.32-0.7-3.66-0.7     c-1.37,0-2.66,0.27-3.87,0.81c-1.21,0.54-2.28,1.3-3.21,2.28s-1.66,2.12-2.19,3.42c-0.53,1.3-0.79,2.7-0.79,4.2     c0,1.52,0.24,2.93,0.72,4.24s1.16,2.43,2.05,3.39c0.89,0.96,1.97,1.7,3.23,2.25c1.26,0.54,2.68,0.81,4.26,0.81     c1.42,0,2.68-0.22,3.79-0.66c1.11-0.44,2.02-0.93,2.75-1.47L873.51,355.4z"/>
			<path fill="#FFFFFF" d="M880.13,357.49l12.23-29.14h0.23l12.19,29.14h-4.3l-9.13-23.26l2.67-1.74l-10.22,25H880.13z      M887.29,346.88h10.41l1.24,3.25H886.2L887.29,346.88z"/>
			<path fill="#FFFFFF" d="M932.18,355.4c-0.46,0.31-1.1,0.66-1.9,1.04s-1.74,0.71-2.81,0.97s-2.24,0.39-3.5,0.39     c-2.17-0.03-4.12-0.41-5.86-1.16c-1.74-0.75-3.22-1.77-4.43-3.06s-2.15-2.78-2.81-4.47c-0.66-1.69-0.99-3.49-0.99-5.4     c0-2.09,0.34-4.02,1.03-5.79c0.68-1.77,1.64-3.3,2.88-4.61c1.24-1.3,2.7-2.31,4.39-3.04c1.69-0.72,3.54-1.08,5.55-1.08     c1.68,0,3.2,0.23,4.57,0.68s2.54,0.99,3.52,1.61l-1.51,3.48c-0.77-0.52-1.71-1.01-2.81-1.47c-1.1-0.46-2.32-0.7-3.66-0.7     c-1.37,0-2.66,0.27-3.87,0.81c-1.21,0.54-2.28,1.3-3.21,2.28s-1.66,2.12-2.19,3.42c-0.53,1.3-0.79,2.7-0.79,4.2     c0,1.52,0.24,2.93,0.72,4.24s1.16,2.43,2.05,3.39c0.89,0.96,1.97,1.7,3.23,2.25c1.26,0.54,2.68,0.81,4.26,0.81     c1.42,0,2.68-0.22,3.79-0.66c1.11-0.44,2.02-0.93,2.75-1.47L932.18,355.4z"/>
			<path fill="#FFFFFF" d="M941.58,329.51h3.75v27.98h-3.75V329.51z"/>
			<path fill="#FFFFFF" d="M953.69,357.49l12.23-29.14h0.23l12.19,29.14h-4.3l-9.13-23.26l2.67-1.74l-10.22,25H953.69z      M960.85,346.88h10.41l1.24,3.25h-12.73L960.85,346.88z"/>
		</g>
		<rect x="533.48" y="343.56" fill="#F93213" width="164.41" height="3.95"/>
		<rect x="1007.11" y="343.56" fill="#F93213" width="164.41" height="3.95"/>
	</g>
	<g>
		<g>
			<path fill="#FFFFFF" d="M537.96,166.42l32.41-77.24h0.62l32.31,77.24h-11.39l-24.21-61.65l7.08-4.62l-27.08,66.26H537.96z      M556.93,138.31h27.59l3.28,8.62h-33.75L556.93,138.31z"/>
			<path fill="#FFFFFF" d="M631.61,92.26h9.95v64.62h37.65v9.54h-47.59V92.26z"/>
			<path fill="#FFFFFF" d="M709.77,166.42V89.9h0.1l38.88,55.18l-4.21-0.82l38.77-54.36h0.21v76.52h-9.85v-53.95l0.62,5.03     l-28,39.59h-0.21l-28.41-39.59l1.74-4.62v53.54H709.77z"/>
			<path fill="#FFFFFF" d="M819.21,92.26h48.21v9.54h-38.26v22.57h34.16v9.54h-34.16v22.98h39.7v9.54h-49.65V92.26z"/>
			<path fill="#FFFFFF" d="M900.45,92.26h9.95v74.16h-9.95V92.26z"/>
			<path fill="#FFFFFF" d="M946.1,166.42V92.26h20.21c7.32,0,13.56,1.13,18.72,3.39c5.16,2.26,9.32,5.23,12.46,8.92     c3.14,3.69,5.45,7.78,6.92,12.26c1.47,4.48,2.21,8.94,2.21,13.39c0,5.61-0.97,10.63-2.92,15.08c-1.95,4.45-4.63,8.24-8.05,11.39     c-3.42,3.15-7.33,5.56-11.75,7.23c-4.41,1.68-9.08,2.51-14,2.51H946.1z M956.05,156.88h11.9c4.1,0,7.88-0.62,11.33-1.85     c3.45-1.23,6.46-3.01,9.03-5.33c2.56-2.32,4.57-5.18,6-8.57c1.44-3.38,2.15-7.23,2.15-11.54c0-4.58-0.75-8.6-2.26-12.05     c-1.5-3.45-3.56-6.34-6.15-8.67c-2.6-2.32-5.54-4.08-8.82-5.28c-3.28-1.2-6.74-1.79-10.36-1.79h-12.82V156.88z"/>
			<path fill="#FFFFFF" d="M1026.31,166.42l32.41-77.24h0.62l32.31,77.24h-11.39l-24.21-61.65l7.08-4.62l-27.08,66.26H1026.31z      M1045.29,138.31h27.59l3.28,8.62h-33.75L1045.29,138.31z"/>
		</g>
	</g>
	<g>
		<g>
			<path fill="#FFFFFF" d="M563.67,241.05c-1.92,0-3.79,0.38-5.64,1.13c-1.85,0.75-3.49,1.78-4.92,3.08     c-1.44,1.3-2.58,2.82-3.44,4.56c-0.86,1.74-1.28,3.61-1.28,5.59c0,2.67,0.7,5.01,2.1,7.03c1.4,2.02,3.28,3.59,5.64,4.72     s4.94,1.69,7.74,1.69c2.6,0,4.89-0.39,6.87-1.18c1.98-0.79,3.69-1.85,5.13-3.18c1.44-1.33,2.5-2.79,3.18-4.36l6.36,5.54     c-1.85,3.42-4.7,6.29-8.57,8.62c-3.86,2.33-8.6,3.49-14.21,3.49c-4.65,0-8.82-0.96-12.51-2.87c-3.69-1.91-6.62-4.51-8.77-7.79     c-2.15-3.28-3.23-7.01-3.23-11.18c0-3.21,0.72-6.19,2.15-8.92c1.44-2.73,3.37-5.11,5.79-7.13c2.43-2.02,5.13-3.61,8.1-4.77     c2.97-1.16,6.07-1.78,9.28-1.85L563.67,241.05z M601.21,276.74c-0.55,0-1.45,0-2.72,0c-1.27,0-2.56,0-3.9,0     c-1.33,0-2.96,0-4.87,0l-35.59-47.08c-0.62-0.96-1.33-2.15-2.15-3.59c-0.82-1.44-1.52-3.03-2.1-4.77     c-0.58-1.74-0.87-3.54-0.87-5.39c0-2.94,0.72-5.69,2.15-8.26c1.44-2.56,3.5-4.63,6.21-6.21c2.7-1.57,6-2.36,9.9-2.36     c4.03,0,7.64,0.79,10.82,2.36c3.18,1.57,5.8,3.42,7.85,5.54l-5.03,6.67c-2.05-1.91-4.09-3.44-6.1-4.56     c-2.02-1.13-4.02-1.69-6-1.69c-3.01,0-5.35,0.91-7.03,2.72c-1.68,1.81-2.51,3.98-2.51,6.51c0,1.23,0.26,2.5,0.77,3.8     c0.51,1.3,1.03,2.39,1.54,3.28c0.51,0.89,0.84,1.47,0.97,1.74L601.21,276.74z M589.42,233.25h9.13l-12,30.77l-7.18-4.51     L589.42,233.25z"/>
			<path fill="#FFFFFF" d="M631.68,276.74v-76.52h0.1l38.88,55.18l-4.21-0.82l38.77-54.36h0.21v76.52h-9.85v-53.95l0.62,5.03     l-28,39.59h-0.21l-28.41-39.59l1.74-4.62v53.54H631.68z"/>
			<path fill="#FFFFFF" d="M733.74,276.74l32.41-77.24h0.62l32.31,77.24h-11.39l-24.21-61.65l7.08-4.62l-27.08,66.26H733.74z      M752.72,248.64h27.59l3.28,8.62h-33.75L752.72,248.64z"/>
			<path fill="#FFFFFF" d="M891.6,279.1l-57.34-58.16l2.87,0.72l0.21,55.08h-9.95v-76.42h0.51l56.72,58.37l-2.36-0.51l-0.21-55.6     h9.85v76.52H891.6z"/>
			<path fill="#FFFFFF" d="M982.07,271.21c-1.23,0.82-2.91,1.74-5.03,2.77c-2.12,1.03-4.6,1.88-7.44,2.56     c-2.84,0.68-5.93,1.03-9.28,1.03c-5.74-0.07-10.92-1.09-15.54-3.08c-4.62-1.98-8.53-4.68-11.74-8.1     c-3.21-3.42-5.69-7.37-7.44-11.85c-1.74-4.48-2.62-9.25-2.62-14.31c0-5.54,0.91-10.65,2.72-15.33c1.81-4.68,4.36-8.75,7.64-12.21     c3.28-3.45,7.16-6.14,11.64-8.05c4.48-1.91,9.38-2.87,14.72-2.87c4.44,0,8.48,0.6,12.1,1.79c3.62,1.2,6.73,2.62,9.33,4.26     l-4,9.23c-2.05-1.37-4.53-2.67-7.44-3.9c-2.91-1.23-6.14-1.85-9.69-1.85c-3.63,0-7.04,0.72-10.26,2.15     c-3.21,1.44-6.05,3.45-8.51,6.05c-2.46,2.6-4.39,5.63-5.8,9.08c-1.4,3.45-2.1,7.16-2.1,11.13c0,4.04,0.63,7.78,1.9,11.23     c1.26,3.45,3.08,6.45,5.44,8.98c2.36,2.53,5.21,4.51,8.57,5.95c3.35,1.44,7.11,2.15,11.28,2.15c3.76,0,7.11-0.58,10.05-1.74     c2.94-1.16,5.37-2.46,7.28-3.9L982.07,271.21z"/>
			<path fill="#FFFFFF" d="M1013.15,202.58h9.95v74.16h-9.95V202.58z"/>
			<path fill="#FFFFFF" d="M1123.01,279.1l-57.34-58.16l2.87,0.72l0.21,55.08h-9.95v-76.42h0.51l56.72,58.37l-2.36-0.51l-0.21-55.6     h9.85v76.52H1123.01z"/>
			<path fill="#FFFFFF" d="M1159.01,202.58h9.95v74.16h-9.95V202.58z"/>
		</g>
	</g>
</g>
<g>
	<g>
		<path fill="#FFFFFF" d="M414.24,125.88l-0.23-71.4l0.48,0.48l-84.8,0.85l-84.8,0.66c-28.27,0.23-56.54,0.71-84.8,0.55l-10.6-0.04    l-10.6-0.12c-7.07-0.08-14.13-0.16-21.2-0.3l-10.6-0.19l-10.6-0.26l-21.2-0.55l1.08-1.08l-0.83,126.7h-0.5l-0.83-126.7l-0.01-1.06    l1.09-0.03l21.2-0.55l10.6-0.26l10.6-0.19c7.07-0.14,14.13-0.22,21.2-0.3l10.6-0.12l10.6-0.04c28.27-0.17,56.54,0.31,84.8,0.55    l84.8,0.66l84.8,0.85l0.48,0l0,0.48l-0.23,71.4H414.24z"/>
	</g>
	<g>
		<path fill="#FFFFFF" d="M75.53,308.73l0.23,84.96l-0.48-0.48l84.8-0.85l84.8-0.66c28.27-0.23,56.54-0.71,84.8-0.55l10.6,0.04    l10.6,0.12c7.07,0.08,14.13,0.16,21.2,0.3l10.6,0.19l10.6,0.26l21.2,0.55l-1.08,1.08c0.28-10.93,0.48-21.86,0.83-32.79h0.5    c0.36,10.93,0.56,21.86,0.83,32.79l0.03,1.06l-1.11,0.03l-21.2,0.55l-10.6,0.26l-10.6,0.19c-7.07,0.14-14.13,0.22-21.2,0.3    l-10.6,0.12l-10.6,0.04c-28.27,0.17-56.54-0.31-84.8-0.55l-84.8-0.66l-84.8-0.85l-0.48,0l0-0.48l0.23-84.96H75.53z"/>
	</g>
	<path fill="#FFFFFF" d="M502.21,207.12c-33.9-1.98-49.23,40.02-49.23,40.02c-0.55,0-37.28,95-58.55,95c-0.55,0-6.63-0.28-6.63-7.73   c0-24.58,41.7-117.65,41.7-166.81v-0.55c0-3.04-0.55-20.99-12.43-20.99c-33.14,0-69.87,157.42-87.27,157.42v-0.28   c0-4.69,23.47-66.83,23.47-101.36c0-13.53-3.87-22.92-13.81-22.92c-24.58,0-49.71,56.34-56.62,73.19   c5.52-28.72,12.98-57.72,23.75-84.79c32.87-3.59,43.64-16.85,43.64-27.89c0-8.84-6.9-16.29-14.91-16.29   c-20.44,0-40.87,42.53-41.15,42.53h-23.2c-5.43,0-9.99-0.16-13.83-0.27c-0.65-0.02-1.23,0.42-1.39,1.05l0,0   c-0.23,0.88,0.41,1.73,1.32,1.75c3.45,0.09,7.73,0.23,13.08,0.23h22.65c-21.21,42.23-29.81,91.73-33.04,119.9   c-13.01,26.24-32.99,54.65-45.94,54.65c-6.9,0-9.67-6.63-9.67-17.68c0-37.28,30.1-123.17,30.1-170.12   c0-19.06-4.97-31.76-19.33-31.76c-22.09,0-39.49,47.78-59.65,91.97c-21.82-4.97-46.4-14.09-69.32-14.09   c-42.11,0-49.17,30.13-50.32,40.95l0,0c-0.18,1.74-0.22,2.98-0.22,3.51c0,0.02,0.01,0.04,0.01,0.07   c-0.31,6.71-0.66,21.97,1.44,38.28c0.22,1.7,1.59,2.32,2.85,1.15c0.41-0.37,0.6-0.91,0.55-1.43c-0.48-4.59-3.54-35.82,0.26-50.35   c0.16-0.57,0.33-1.14,0.51-1.73c0.03-0.08,0.05-0.16,0.07-0.23l0,0c3.9-12.33,13.76-27.46,44.86-27.46   c22.37,0,46.67,8.84,68.21,13.81c-14.36,31.48-31.21,63.24-47.5,63.24c-12.98,0-18.5-18.78-20.71-18.78   c-0.55,0-1.38,0.55-1.38,1.38c0,0.28,8.29,19.88,22.09,19.88c17.95,0,34.52-30.38,50.26-64.9c9.39,2.21,20.71,4.42,35.63,4.42   c4.69,0,9.94-0.28,15.47-0.83c-10.77,39.49-14.36,66.56-14.36,84.79c0,37.56,15.74,38.66,18.5,38.66h0.28   c16.53,0,34.31-26.28,46.55-50.02c-0.74,7.74-0.99,12.96-0.99,14.66c0,1.1,0.28,9.67,12.43,9.67c8.28,0-2.49-30.66,22.09-83.13   c5.52-12.15,26.79-53.85,44.46-53.85c2.49,0,3.59,2.76,3.59,7.46c0,20.44-19.33,77.33-19.33,103.57c0,8.01,1.93,13.26,6.9,13.26   c21.26,0,58.27-156.31,87.27-158.25c2.21,0.83,3.31,3.59,3.31,8.01c0,28.72-40.05,124.83-40.05,167.64   c0,12.98,3.59,20.99,12.98,20.99c23.1,0,53.53-71.69,60.99-91.98v0c16.91-44.76,44.3-45.72,49.43-45.09   c0.46,0.06,0.86-0.3,0.86-0.77C502.94,207.49,502.62,207.15,502.21,207.12z M337.26,125.9c4.97,0,10.22,6.08,10.22,13.53   c0,9.67-9.11,21.54-39.77,25.13C320.14,134.74,330.35,125.9,337.26,125.9z M192.83,220.36c-14.36,0-25.41-2.21-34.8-4.14   c16.57-36.73,37.01-89.48,54.96-89.48c7.46,0,10.22,8.28,10.22,20.16c0,27.34-14.36,72.63-14.36,72.63   C203.05,220.08,197.8,220.36,192.83,220.36z"/>
</g>
</svg>